<svg
        xmlns="http://www.w3.org/2000/svg"
        xmlns:xlink="http://www.w3.org/1999/xlink"
        width="13px" height="10px">
    <path fill-rule="evenodd"  fill="rgb(17, 89, 138)"
          d="M12.570,1.882 C12.570,1.686 12.490,1.490 12.347,1.349 L11.260,0.285 C11.116,0.144 10.917,0.066 10.717,0.066 C10.517,0.066 10.317,0.144 10.174,0.285 L4.933,5.426 L2.584,3.118 C2.440,2.977 2.240,2.899 2.040,2.899 C1.841,2.899 1.641,2.977 1.497,3.118 L0.410,4.182 C0.267,4.323 0.187,4.519 0.187,4.714 C0.187,4.910 0.267,5.106 0.410,5.246 L3.303,8.079 L4.389,9.144 C4.533,9.284 4.733,9.363 4.933,9.363 C5.132,9.363 5.332,9.284 5.476,9.144 L6.562,8.079 L12.347,2.414 C12.490,2.273 12.570,2.077 12.570,1.882 Z"/>
</svg>